/* XPM */
static char * close_pressed_xpm[] = {
"24 24 57 1",
" 	c None",
".	c #222D32",
"+	c #234149",
"@	c #277682",
"#	c #2DA3B4",
"$	c #2FB4C7",
"%	c #32C3D6",
"&	c #234248",
"*	c #224046",
"=	c #2B91A0",
"-	c #31C8DB",
";	c #33C9DD",
">	c #32C9DB",
",	c #2B9BAA",
"'	c #23434A",
")	c #25636F",
"!	c #31C2D5",
"~	c #26636D",
"{	c #277884",
"]	c #277783",
"^	c #234247",
"/	c #233F47",
"(	c #2B94A4",
"_	c #2A92A1",
":	c #41CDDD",
"<	c #44CDDF",
"[	c #DFEDF0",
"}	c #DDF2F6",
"|	c #45CDDF",
"1	c #277481",
"2	c #2DA3B3",
"3	c #FFFFFF",
"4	c #2CA1B1",
"5	c #30B6C8",
"6	c #44CBDD",
"7	c #DDF1F6",
"8	c #DFF4F8",
"9	c #46CEDE",
"0	c #45CBDD",
"a	c #46CEE0",
"b	c #31C2D3",
"c	c #2FB5C7",
"d	c #45CEDE",
"e	c #2FB4C6",
"f	c #277480",
"g	c #32C7DA",
"h	c #2A93A2",
"i	c #2A919E",
"j	c #233E46",
"k	c #256069",
"l	c #25626C",
"m	c #25616A",
"n	c #223B42",
"o	c #2A8D9A",
"p	c #2A96A6",
"q	c #2CA2B2",
"r	c #277580",
".......+@#$%%$#@&.......",
".....*=-;;;;;;;;>,'.....",
"....)%;;;;;;;;;;;;!~....",
"...{>;;;;;;;;;;;;;;>]...",
"..)>;;;;;;;;;;;;;;;;>~..",
".^%;;;;;;;;;;;;;;;;;;!/.",
".(;;;;;;;;;;;;;;;;;;;;_.",
"+-;;;;;:<;;;;;;<:;;;;;-^",
"];;;;;:[}|;;;;|}[:;;;;;1",
"2;;;;;<}3}<;;<}3}<;;;;;4",
"5;;;;;;673890738a;;;;;;$",
"%;;;;;;;<}3}}3}<;;;;;;;%",
"%;;;;;;;;<}33}<;;;;;;;;b",
"c;;;;;;;;67338d;;;;;;;;e",
"2;;;;;;;<}3}}3}<;;;;;;;4",
"@;;;;;;6738a6738d;;;;;;f",
"&-;;;;<}3}<;;<}3}<;;;;g^",
".h;;;;:[}<;;;;<}[:;;;;i.",
".*!;;;;:<;;;;;;<:;;;;bj.",
"..k-;;;;;;;;;;;;;;;;>l..",
"...]>;;;;;;;;;;;;;;>@...",
"....~!;;;;;;;;;;;;bm....",
".....nog;;;;;;;;>pj.....",
".......^1qe%%e4r^......."};
