/* XPM */
static char * iconify_pressed_xpm[] = {
"24 24 15 1",
" 	c None",
".	c #222D32",
"+	c #263136",
"@	c #2B363B",
"#	c #2F3A3F",
"$	c #323D42",
"%	c #2A353A",
"&	c #333E43",
"*	c #253035",
"=	c #273237",
"-	c #232E33",
";	c #2C373C",
">	c #2D383D",
",	c #313C41",
"'	c #A7B1B5",
"........+@#$$#@+........",
"......%&&&&&&&&&&%......",
"....*&&&&&&&&&&&&&&*....",
"...=&&&&&&&&&&&&&&&&=...",
"..+&&&&&&&&&&&&&&&&&&+..",
".-&&&&&&&&&&&&&&&&&&&&-.",
".;&&&&&&&&&&&&&&&&&&&&;.",
"-&&&&&&&&&&&&&&&&&&&&&&-",
"=&&&&&&&&&&&&&&&&&&&&&&=",
">&&&&&&&&&&&&&&&&&&&&&&>",
",&&&&&&&&&&&&&&&&&&&&&&,",
"$&&&&&&&&&&&&&&&&&&&&&&$",
",&&&&&&&&&&&&&&&&&&&&&&,",
">&&&&&&&&&&&&&&&&&&&&&&>",
"=&&&&&&&&&&&&&&&&&&&&&&=",
"-&&&&&&''''''''''&&&&&&-",
".;&&&&&''''''''''&&&&&;.",
".-&&&&&&&&&&&&&&&&&&&&-.",
"..+&&&&&&&&&&&&&&&&&&+..",
"...=&&&&&&&&&&&&&&&&=...",
"....*&&&&&&&&&&&&&&*....",
"......%&&&&&&&&&&%......",
"........+@#$$#@+........",
"........................"};
