/* XPM */
static char * close_pressed_xpm[] = {
"34 34 72 1",
" 	c None",
".	c #29353B",
"+	c #2A363D",
"@	c #919699",
"#	c #222D32",
"$	c #222E32",
"%	c #354045",
"&	c #22373D",
"*	c #266975",
"=	c #2A92A1",
"-	c #2EAEBE",
";	c #30BED1",
">	c #32C6D9",
",	c #2B92A0",
"'	c #266974",
")	c #22373C",
"!	c #234850",
"~	c #2A94A2",
"{	c #32C4D7",
"]	c #33C9DD",
"^	c #2A93A2",
"/	c #23464E",
"(	c #223438",
"_	c #298A96",
":	c #32C7DA",
"<	c #298996",
"[	c #223339",
"}	c #2EB2C3",
"|	c #2EACBB",
"1	c #233E46",
"2	c #244F57",
"3	c #2FBACD",
"4	c #234D55",
"5	c #233E45",
"6	c #2FB1C2",
"7	c #2EAEC0",
"8	c #298290",
"9	c #32C3D6",
"0	c #2A909E",
"a	c #42CDE0",
"b	c #45CEE0",
"c	c #D9F5F9",
"d	c #DCF6F9",
"e	c #256872",
"f	c #FFFFFF",
"g	c #2B91A0",
"h	c #44CDE0",
"i	c #DBF5F9",
"j	c #DFF7FA",
"k	c #47CEE0",
"l	c #46CEE0",
"m	c #30BFD1",
"n	c #31BDD0",
"o	c #32C6D8",
"p	c #2A919E",
"q	c #266872",
"r	c #22353B",
"s	c #23454C",
"t	c #298694",
"u	c #2EABBC",
"v	c #213137",
"w	c #30BBCC",
"x	c #30BDCE",
"y	c #224046",
"z	c #244C54",
"A	c #223B42",
"B	c #2DA8B9",
"C	c #298693",
"D	c #2EACBD",
"E	c #2A909F",
"F	c #266771",
"G	c #1E272C",
"##################################",
"###########&*=-;>>;-,')###########",
"#########!~{]]]]]]]]]]{^/#########",
"#######(_:]]]]]]]]]]]]]]><[#######",
"######/}]]]]]]]]]]]]]]]]]]|1######",
"#####2;]]]]]]]]]]]]]]]]]]]]34#####",
"####/;]]]]]]]]]]]]]]]]]]]]]]35####",
"###[6]]]]]]]]]]]]]]]]]]]]]]]]7(###",
"###_]]]]]]]]]]]]]]]]]]]]]]]]]]8###",
"##!:]]]]]]]]]]]]]]]]]]]]]]]]]]95##",
"##~]]]]]]]]]]]]]]]]]]]]]]]]]]]]0##",
"#&{]]]]]]]]]ab]]]]]]ba]]]]]]]]]9)#",
"#*]]]]]]]]]acdb]]]]bdca]]]]]]]]]e#",
"#=]]]]]]]]]bdfdb]]bdfdb]]]]]]]]]g#",
"#-]]]]]]]]]]hifjkhifjl]]]]]]]]]]|#",
"#m]]]]]]]]]]]bdfddfdb]]]]]]]]]]]n#",
"#o]]]]]]]]]]]]bdffdb]]]]]]]]]]]]o#",
"#o]]]]]]]]]]]]hiffjk]]]]]]]]]]]]o#",
"#m]]]]]]]]]]]bdfddfdb]]]]]]]]]]]n#",
"#-]]]]]]]]]]hifjlhifjk]]]]]]]]]]|#",
"#,]]]]]]]]]bdfdb]]bdfdb]]]]]]]]]p#",
"#']]]]]]]]]acdb]]]]bdca]]]]]]]]]q#",
"#r9]]]]]]]]]ab]]]]]]ba]]]]]]]]]9r#",
"##^]]]]]]]]]]]]]]]]]]]]]]]]]]]],##",
"##/>]]]]]]]]]]]]]]]]]]]]]]]]]]os##",
"###<]]]]]]]]]]]]]]]]]]]]]]]]]]t###",
"###[|]]]]]]]]]]]]]]]]]]]]]]]]uv###",
"####5w]]]]]]]]]]]]]]]]]]]]]]xy####",
"#####43]]]]]]]]]]]]]]]]]]]]wz#####",
"######AB]]]]]]]]]]]]]]]]]]u5######",
"#######v89]]]]]]]]]]]]]]oCv#######",
"#########509]]]]]]]]]]9gs#########",
"###########repDnoonDEFr###########",
"##################################"};
