/* XPM */
static char * close_xpm[] = {
"30 30 18 1",
" 	c None",
".	c #29353B",
"+	c #2A363D",
"@	c #919699",
"#	c #222D32",
"$	c #222E32",
"%	c #354045",
"&	c #2B373B",
"*	c #2D383D",
"=	c #8D9397",
"-	c #8C9599",
";	c #A1ABAF",
">	c #2D373C",
",	c #8C9499",
"'	c #8D969B",
")	c #2E3A3E",
"!	c #2E393E",
"~	c #1E272C",
"..............................",
"##############################",
"##############################",
"##############################",
"##############################",
"##############################",
"##############################",
"##############################",
"##############################",
"##############################",
"##########&*######*&##########",
"#########&=-*####*-=&#########",
"#########*-;-*##*-;-*#########",
"##########>,;')>,;'!##########",
"###########*-;--;-*###########",
"############*-;;-*############",
"############>,;;')############",
"###########*-;--;-*###########",
"##########>,;'!>,;')##########",
"#########*-;-*##*-;-*#########",
"#########&=-*####*-=&#########",
"##########&*######*&##########",
"##############################",
"##############################",
"##############################",
"##############################",
"##############################",
"##############################",
"##############################",
"~~~~~~~~~~~~~~~~~~~~~~~~~~~~~~"};
