/* XPM */
static char * close_hover_xpm[] = {
"34 34 72 1",
" 	c None",
".	c #29353B",
"+	c #2A363D",
"@	c #919699",
"#	c #222D32",
"$	c #222E32",
"%	c #354045",
"&	c #2E2E33",
"*	c #6F3A3D",
"=	c #A84345",
"-	c #D14A4B",
";	c #EC4E4F",
">	c #FA5151",
",	c #A74345",
"'	c #6E393C",
")	c #2D2E33",
"!	c #423236",
"~	c #AA4345",
"{	c #F65050",
"]	c #FF5252",
"^	c #A94345",
"/	c #292E33",
"(	c #9B4143",
"_	c #FB5151",
":	c #994042",
"<	c #282E33",
"[	c #D84B4C",
"}	c #CE494A",
"|	c #373035",
"1	c #4C3438",
"2	c #E64D4E",
"3	c #493337",
"4	c #363035",
"5	c #D64B4C",
"6	c #D24B4C",
"7	c #913F41",
"8	c #F45050",
"9	c #A44244",
"0	c #FF5F5F",
"a	c #FF6161",
"b	c #F55050",
"c	c #FFDFDF",
"d	c #FFE1E1",
"e	c #6D393C",
"f	c #FFFFFF",
"g	c #A64345",
"h	c #FF6060",
"i	c #FFE0E0",
"j	c #FFE4E4",
"k	c #FF6363",
"l	c #FF6262",
"m	c #ED4F4F",
"n	c #EB4E4F",
"o	c #F95151",
"p	c #F85051",
"q	c #A54345",
"r	c #6B393C",
"s	c #2C2E33",
"t	c #3F3236",
"u	c #974042",
"v	c #CD494A",
"w	c #282D32",
"x	c #E54D4E",
"y	c #E84E4E",
"z	c #393135",
"A	c #343034",
"B	c #C9494A",
"C	c #964042",
"D	c #CF4A4B",
"E	c #A44345",
"F	c #6C393D",
"G	c #1E272C",
"##################################",
"###########&*=-;>>;-,')###########",
"#########!~{]]]]]]]]]]{^!#########",
"#######/(_]]]]]]]]]]]]]]>:<#######",
"######![]]]]]]]]]]]]]]]]]]}|######",
"#####1;]]]]]]]]]]]]]]]]]]]]23#####",
"####!;]]]]]]]]]]]]]]]]]]]]]]24####",
"###<5]]]]]]]]]]]]]]]]]]]]]]]]6/###",
"###(]]]]]]]]]]]]]]]]]]]]]]]]]]7###",
"##!_]]]]]]]]]]]]]]]]]]]]]]]]]]84##",
"##~]]]]]]]]]]]]]]]]]]]]]]]]]]]]9##",
"#&{]]]]]]]]]0a]]]]]]a0]]]]]]]]]b)#",
"#*]]]]]]]]]0cda]]]]adc0]]]]]]]]]e#",
"#=]]]]]]]]]adfda]]adfda]]]]]]]]]g#",
"#-]]]]]]]]]]hifjkhifjl]]]]]]]]]]}#",
"#m]]]]]]]]]]]adfddfda]]]]]]]]]]]n#",
"#o]]]]]]]]]]]]adffda]]]]]]]]]]]]p#",
"#o]]]]]]]]]]]]hiffjk]]]]]]]]]]]]p#",
"#m]]]]]]]]]]]adfddfda]]]]]]]]]]]n#",
"#-]]]]]]]]]]hifjlhifjk]]]]]]]]]]}#",
"#,]]]]]]]]]adfda]]adfda]]]]]]]]]q#",
"#']]]]]]]]]0cda]]]]adc0]]]]]]]]]r#",
"#sb]]]]]]]]]0a]]]]]]a0]]]]]]]]]bs#",
"##^]]]]]]]]]]]]]]]]]]]]]]]]]]]],##",
"##!>]]]]]]]]]]]]]]]]]]]]]]]]]]ot##",
"###:]]]]]]]]]]]]]]]]]]]]]]]]]]u###",
"###<}]]]]]]]]]]]]]]]]]]]]]]]]vw###",
"####4x]]]]]]]]]]]]]]]]]]]]]]yz####",
"#####32]]]]]]]]]]]]]]]]]]]]x3#####",
"######AB]]]]]]]]]]]]]]]]]]v4######",
"#######w7b]]]]]]]]]]]]]]oCw#######",
"#########49b]]]]]]]]]]bgt#########",
"###########seqDnoonDEFs###########",
"##################################"};
