/* XPM */
static char * max_xpm[] = {
"30 30 4 1",
" 	c #29353B",
".	c #222D32",
"+	c #A1ABAF",
"@	c #1E272C",
"..............................",
"..............................",
"..............................",
"..............................",
"..............................",
"..............................",
"..............................",
"..............................",
"..............................",
"..............................",
"..........++++++++++..........",
"..........++++++++++..........",
"..............................",
"..........++++++++++..........",
"..........++++++++++..........",
"..........++......++..........",
"..........++......++..........",
"..........++......++..........",
"..........++++++++++..........",
"..........++++++++++..........",
"..............................",
"..............................",
"..............................",
"..............................",
"..............................",
"..............................",
"..............................",
"..............................",
"..............................",
".............................."};
