/* XPM */
static char *panel[] = {
/* columns rows colors chars-per-pixel */
"30 30 5 1 ",
"  c #0F1016",
". c #222D32",
"X c #335884",
"o c #3B608D",
"O c #33C9DD",
/* pixels */
"..............................",
"..............................",
"..............................",
"..............................",
"..............................",
"..............................",
"..............................",
"..............................",
"..............................",
"..............................",
"..............................",
"..............................",
"..............................",
"..............................",
"..............................",
"..............................",
"..............................",
"..............................",
"..............................",
"..............................",
"..............................",
"..............................",
"..............................",
"..............................",
"..............................",
"..............................",
"OOOOOOOOOOOOOOOOOOOOOOOOOOOOOO",
"OOOOOOOOOOOOOOOOOOOOOOOOOOOOOO",
"..............................",
".............................."
};
